# xmcd
#
# Track frame offsets:
#	150
#	21864
#	37301
#	54726
#	75282
#	94038
#	110384
#	127361
#	144938
#	163284
#	179659
#	195126
#	214745
#	240161
#	256009
#	275056
#	303344
#
# Disc length: 4057 seconds
#
# Revision: 1
# Processed by: cddbd v1.5.1PL0 Copyright (c) Steve Scherf et al.
# Submitted via: audiograbber 1.83.01
#
DISCID=eb0fd711
DTITLE=Sound Choice - SC8916
DYEAR=2005
DGENRE=KARAOKE
TTITLE0=Lonestar - Class Reunion (That Used To Be Us)
TTITLE1=Trace Adkins - Rough and Ready*
TTITLE2=Gretchen Wilson - Holdin' You
TTITLE3=Rascal Flatts - Skin
TTITLE4=Big and Rich - Six Foot Town
TTITLE5=Kenny Chesney - Old Blue Chair
TTITLE6=Tim Mcgraw - Walk Like A Man
TTITLE7=Lee Ann Womack - I May Hate Myself In The Morning
TTITLE8=Katrina Elam - I Want A Cowboy
TTITLE9=Trace Adkins - Songs About Me
TTITLE10=Julie Roberts - Wake Up Older
TTITLE11=Sugarland - Baby Girl
TTITLE12=Kenny Chesney - Anything But Mine
TTITLE13=Jo Dee Messina - My Give A Damn's Busted
TTITLE14=Tim Mcgraw - Do You Want Fries With That
TTITLE15=Kenny Chesney - Old Blue Chair (Ocean Mix)
TTITLE16=Data Track - Data Track
EXTD=
EXTT0=
EXTT1=
EXTT2=
EXTT3=
EXTT4=
EXTT5=
EXTT6=
EXTT7=
EXTT8=
EXTT9=
EXTT10=
EXTT11=
EXTT12=
EXTT13=
EXTT14=
EXTT15=
EXTT16=
PLAYORDER=
